<svg width="33" height="33" viewBox="0 0 33 33" fill="none" xmlns="http://www.w3.org/2000/svg">
<path d="M14.2396 22.7417L13 21.4875M18.5344 14.6042H18.546M12.125 31.0833H20.875C28.1667 31.0833 31.0833 28.1667 31.0833 20.875V12.125C31.0833 4.83332 28.1667 1.91666 20.875 1.91666H12.125C4.83332 1.91666 1.91666 4.83332 1.91666 12.125V20.875C1.91666 28.1667 4.83332 31.0833 12.125 31.0833ZM22.7417 18.8479C21.9604 19.6322 20.9788 20.1871 19.9039 20.4519C18.829 20.7168 17.7021 20.6815 16.6458 20.35L12.8687 24.1125C12.6062 24.3896 12.0667 24.5646 11.6729 24.5062L9.92291 24.2729C9.33957 24.2 8.81457 23.6458 8.72707 23.0771L8.49374 21.3271C8.43541 20.9479 8.62499 20.4083 8.88749 20.1312L12.65 16.3687C12.0083 14.2833 12.5042 11.9208 14.1521 10.2729C16.5146 7.91041 20.3646 7.91041 22.7417 10.2729C25.1042 12.6208 25.1042 16.4708 22.7417 18.8479Z" stroke="#0C9ED5" stroke-width="2" stroke-linecap="round" stroke-linejoin="round"/>
</svg>
